<svg width="854" height="592" viewBox="0 0 854 592" fill="none" xmlns="http://www.w3.org/2000/svg">
<g clip-path="url(#clip0)">
<path d="M0 0V286.653H286.745V0H0ZM145.71 280.421C144.169 280.421 142.662 279.964 141.381 279.108C140.099 278.252 139.101 277.036 138.511 275.613C137.921 274.189 137.767 272.623 138.068 271.112C138.368 269.601 139.11 268.213 140.2 267.124C141.29 266.034 142.678 265.292 144.19 264.992C145.701 264.691 147.268 264.845 148.692 265.435C150.116 266.025 151.332 267.023 152.189 268.304C153.045 269.585 153.502 271.091 153.502 272.632C153.502 274.697 152.681 276.679 151.22 278.14C149.758 279.6 147.776 280.421 145.71 280.421Z" fill="#4976EF"/>
<path d="M854 334.947C854 462.609 760.894 568.546 638.864 588.588C624.98 590.864 610.934 592.005 596.865 592C563.095 592.007 529.655 585.363 498.455 572.448C467.255 559.532 438.906 540.598 415.027 516.727C391.148 492.856 372.208 464.516 359.288 433.326C346.369 402.135 339.723 368.706 339.73 334.947C339.73 192.984 454.856 77.8947 596.865 77.8947C650.535 77.8126 702.873 94.5981 746.479 125.878C811.581 172.506 854 248.772 854 334.947Z" fill="#4976EF"/>
<path d="M775.354 85.6015L797.686 78.6408L799.612 58.979C799.612 58.979 745.296 38.468 727.931 74.7482C721.8 87.5583 714.072 95.2515 706.64 99.8442C696.403 106.17 683.784 106.913 672.479 102.785C634.835 89.0417 625.97 128.125 625.97 128.125C625.97 128.125 629.224 133.689 652.429 135.057C663.977 135.738 673.426 144.425 680.005 152.981C694.093 171.303 723.032 166.008 730.138 144.018C730.253 143.663 730.365 143.304 730.476 142.941C741.576 106.59 792.111 135.532 792.111 135.532L795.338 102.607L775.354 85.6015Z" fill="#2F2E41"/>
<path d="M623.189 174.582C638.295 174.582 650.541 162.34 650.541 147.238C650.541 132.137 638.295 119.895 623.189 119.895C608.083 119.895 595.837 132.137 595.837 147.238C595.837 162.34 608.083 174.582 623.189 174.582Z" fill="#2F2E41"/>
<path d="M609.513 293.069C649.796 293.069 682.452 260.424 682.452 220.154C682.452 179.884 649.796 147.238 609.513 147.238C569.23 147.238 536.574 179.884 536.574 220.154C536.574 260.424 569.23 293.069 609.513 293.069Z" fill="#2F2E41"/>
<path d="M607.234 296.867C634.928 296.867 657.379 274.423 657.379 246.737C657.379 219.052 634.928 196.608 607.234 196.608C579.539 196.608 557.089 219.052 557.089 246.737C557.089 274.423 579.539 296.867 607.234 296.867Z" fill="#A0616A"/>
<path d="M587.48 284.714L596.597 333.324L642.184 327.248C642.184 327.248 634.586 289.271 639.145 278.638L587.48 284.714Z" fill="#A0616A"/>
<path d="M362.585 473.079C362.585 473.079 310.92 442.697 306.362 463.964C301.803 485.231 358.027 494.346 358.027 494.346L362.585 473.079Z" fill="#A0616A"/>
<path d="M677.134 178.379C677.134 178.379 640.664 151.036 625.469 161.67C610.273 172.303 666.497 207.242 672.575 204.203C678.653 201.165 677.134 178.379 677.134 178.379Z" fill="#A0616A"/>
<path d="M642.184 301.424L587.48 310.538V334.843C587.48 334.843 535.815 351.553 535.815 359.149C535.815 366.744 522.139 395.606 522.139 395.606C522.139 395.606 488.708 419.911 516.06 448.774C516.06 448.774 526.697 465.483 519.1 467.002C511.502 468.522 494.787 473.079 502.384 479.155C509.982 485.231 623.949 526.246 633.066 523.208C642.184 520.17 712.083 412.316 712.083 384.973C712.083 357.629 683.212 318.134 683.212 318.134L649.781 313.576L642.184 301.424Z" fill="#D0CDE1"/>
<path d="M540.373 357.629C540.373 357.629 519.1 354.591 511.502 380.416C503.904 406.24 478.072 489.789 478.072 489.789C478.072 489.789 385.379 488.269 361.066 465.483L350.429 500.422C350.429 500.422 490.228 550.551 502.385 541.437C514.541 532.322 567.725 384.973 567.725 384.973L540.373 357.629Z" fill="#D0CDE1"/>
<path d="M678.653 322.691L683.212 318.134C683.212 318.134 740.955 255.852 739.435 240.661C739.435 240.661 709.044 202.684 671.055 213.318C671.055 213.318 654.34 172.303 680.173 173.822C706.005 175.341 801.737 169.265 800.218 213.318C798.698 257.371 707.525 392.568 707.525 392.568L678.653 322.691Z" fill="#D0CDE1"/>
<path d="M638.864 588.588C624.98 590.864 610.934 592.005 596.865 592C552.161 592.07 508.219 580.433 469.412 558.248L478.443 539.966L507.187 481.732L508.465 479.154L529.402 485.463L634.586 517.135L634.874 521.988L638.864 588.588Z" fill="#2F2E41"/>
<path d="M656.986 224.149C662.663 207.47 646.011 186.719 619.793 177.801C593.574 168.883 567.718 175.174 562.041 191.853C556.364 208.532 573.016 229.283 599.234 238.201C625.452 247.12 651.309 240.828 656.986 224.149Z" fill="#2F2E41"/>
<path d="M146.955 274.623C157.515 255.281 182.807 243.033 203.498 254.072C212.811 259.041 220.214 267.831 222.564 278.22C225.294 290.289 219.545 301.795 213.613 311.935C210.393 317.438 206.865 322.829 204.2 328.633C201.441 334.644 199.469 341.592 201.547 348.131C203.418 354.023 208.106 358.308 213.241 361.457C218.908 364.8 224.936 367.49 231.21 369.476C244.124 373.77 257.745 375.532 271.327 374.665C278.077 374.207 284.77 373.125 291.321 371.434C298.29 369.658 305.128 367.407 312.108 365.673C323.762 362.78 337.049 361.341 348.1 367.156C358.835 372.805 363.64 384.619 365.126 396.113C367.871 417.336 359.453 439.36 344.254 454.224C336.963 461.354 327.787 467.245 317.793 469.655C309.072 471.759 297.875 471.624 290.936 465.107C283.192 457.834 285.011 446.171 291.164 438.498C299.015 428.708 312.314 426.356 324.182 426.118C337.683 425.847 351.171 427.857 364.663 426.607C371.249 426.095 377.711 424.536 383.807 421.991C389.165 419.634 394.053 416.328 398.234 412.231C406.563 404.141 412.178 393.363 414.975 382.157C418.339 368.681 417.606 354.519 414.994 340.983C413.603 334.003 411.811 327.109 409.627 320.335C408.726 317.477 404.211 318.698 405.119 321.578C413.16 347.068 417.644 376.543 402.107 400.209C395.678 410.246 385.662 417.453 374.101 420.363C360.654 423.704 346.544 422.052 332.874 421.555C319.876 421.083 305.605 421.592 294.46 429.161C285.32 435.368 278.926 447.175 281.689 458.322C284.354 469.072 294.687 474.522 305.022 475.364C315.866 476.248 326.538 472.609 335.644 466.92C354.589 455.085 367.185 434.272 369.822 412.205C371.196 400.707 369.798 388.322 364.582 377.885C361.834 372.236 357.556 367.47 352.234 364.128C346.928 360.876 340.798 359.275 334.643 358.709C320.659 357.421 307.222 362.221 293.956 365.893C287.179 367.858 280.232 369.184 273.207 369.852C266.389 370.417 259.532 370.305 252.736 369.519C245.993 368.723 239.347 367.249 232.9 365.118C226.583 363.165 220.534 360.432 214.895 356.98C209.919 353.799 205.617 349.245 205.372 343.041C205.107 336.31 208.501 330.014 211.73 324.339C218.11 313.129 225.987 302.164 227.653 289.042C229.11 277.563 224.49 266.248 216.512 258.061C212.513 253.905 207.699 250.619 202.371 248.41C197.043 246.2 191.316 245.114 185.549 245.22C173.71 245.558 162.375 250.705 153.668 258.609C149.35 262.532 145.717 267.147 142.918 272.264C141.476 274.905 145.511 277.267 146.955 274.623Z" fill="#3F3D56"/>
<path d="M155.06 26.4842C147.642 26.4845 140.425 28.9016 134.504 33.3694C128.582 37.8371 124.279 44.1122 122.244 51.2441C120.21 58.3761 120.556 65.9766 123.23 72.8944C125.904 79.8122 130.76 85.6705 137.063 89.5821C137.162 89.6438 137.267 89.6966 137.367 89.7573C138.627 86.0663 141.01 82.8618 144.183 80.5926C147.356 78.3235 151.159 77.1034 155.06 77.1034C158.961 77.1034 162.765 78.3235 165.938 80.5926C169.111 82.8618 171.494 86.0663 172.754 89.7573C172.854 89.6966 172.959 89.6438 173.058 89.5821C179.361 85.6705 184.217 79.8122 186.89 72.8944C189.564 65.9766 189.91 58.3761 187.876 51.2441C185.842 44.1122 181.538 37.8371 175.617 33.3694C169.695 28.9016 162.479 26.4845 155.06 26.4842ZM155.06 73.8021C152.665 73.8022 150.324 73.0922 148.333 71.7622C146.342 70.4321 144.79 68.5416 143.873 66.3298C142.957 64.118 142.717 61.6841 143.184 59.3361C143.652 56.988 144.805 54.8312 146.498 53.1383C148.192 51.4454 150.349 50.2926 152.698 49.8255C155.047 49.3585 157.481 49.5982 159.694 50.5143C161.906 51.4305 163.798 52.982 165.128 54.9726C166.459 56.9632 167.169 59.3035 167.169 61.6976C167.169 64.9079 165.893 67.9867 163.622 70.2568C161.351 72.5268 158.272 73.8021 155.06 73.8021Z" fill="#3F3D56"/>
<path d="M96.6204 127.747C100.063 127.747 102.854 124.957 102.854 121.516C102.854 118.074 100.063 115.284 96.6204 115.284C93.1777 115.284 90.3869 118.074 90.3869 121.516C90.3869 124.957 93.1777 127.747 96.6204 127.747Z" fill="#3F3D56"/>
<path d="M96.6204 155.789C100.063 155.789 102.854 153 102.854 149.558C102.854 146.116 100.063 143.326 96.6204 143.326C93.1777 143.326 90.3869 146.116 90.3869 149.558C90.3869 153 93.1777 155.789 96.6204 155.789Z" fill="#3F3D56"/>
<path d="M96.6204 183.832C100.063 183.832 102.854 181.042 102.854 177.6C102.854 174.158 100.063 171.368 96.6204 171.368C93.1777 171.368 90.3869 174.158 90.3869 177.6C90.3869 181.042 93.1777 183.832 96.6204 183.832Z" fill="#3F3D56"/>
<path d="M96.6204 211.874C100.063 211.874 102.854 209.084 102.854 205.642C102.854 202.201 100.063 199.411 96.6204 199.411C93.1777 199.411 90.3869 202.201 90.3869 205.642C90.3869 209.084 93.1777 211.874 96.6204 211.874Z" fill="#3F3D56"/>
<path d="M190.124 171.368H119.996C116.554 171.368 113.763 174.158 113.763 177.6V177.6C113.763 181.042 116.554 183.832 119.996 183.832H190.124C193.567 183.832 196.358 181.042 196.358 177.6C196.358 174.158 193.567 171.368 190.124 171.368Z" fill="#3F3D56"/>
<path d="M190.124 199.411H119.996C116.554 199.411 113.763 202.201 113.763 205.642C113.763 209.084 116.554 211.874 119.996 211.874H190.124C193.567 211.874 196.358 209.084 196.358 205.642C196.358 202.201 193.567 199.411 190.124 199.411Z" fill="#3F3D56"/>
<path d="M190.124 143.326H119.996C116.554 143.326 113.763 146.116 113.763 149.558V149.558C113.763 153 116.554 155.789 119.996 155.789H190.124C193.567 155.789 196.358 153 196.358 149.558C196.358 146.116 193.567 143.326 190.124 143.326Z" fill="#3F3D56"/>
<path d="M190.124 115.284H119.996C116.554 115.284 113.763 118.074 113.763 121.516V121.516C113.763 124.957 116.554 127.747 119.996 127.747H190.124C193.567 127.747 196.358 124.957 196.358 121.516C196.358 118.074 193.567 115.284 190.124 115.284Z" fill="#3F3D56"/>
</g>
<defs>
<clipPath id="clip0">
<rect width="854" height="592" fill="white"/>
</clipPath>
</defs>
</svg>
