<svg width="29" height="29" viewBox="0 0 29 29" fill="none" xmlns="http://www.w3.org/2000/svg">
<path d="M28.5129 12.9641L26.063 10.7319V3.3299C26.063 2.85893 25.6812 2.47706 25.2102 2.47706H19.3131C18.8421 2.47706 18.4602 2.85887 18.4602 3.3299V3.8042L15.5016 1.10828C14.9305 0.587809 14.0692 0.587866 13.4983 1.10822L0.486987 12.9642C0.0295578 13.3811 -0.121616 14.0234 0.101888 14.6005C0.325448 15.1776 0.869764 15.5504 1.48868 15.5504H3.56676V27.4292C3.56676 27.9001 3.94858 28.282 4.4196 28.282H11.5514C12.0224 28.282 12.4042 27.9002 12.4042 27.4292V20.2168H16.5957V27.4292C16.5957 27.9002 16.9775 28.2821 17.4485 28.2821H24.58C25.051 28.2821 25.4329 27.9003 25.4328 27.4292V15.5505H27.5113C28.1302 15.5505 28.6746 15.1776 28.8981 14.6005C29.1216 14.0234 28.9705 13.3811 28.5129 12.9641ZM24.58 13.8448C24.1091 13.8448 23.7272 14.2266 23.7272 14.6977V26.5764H18.3014V19.3639C18.3014 18.893 17.9195 18.5111 17.4486 18.5111H11.5514C11.0804 18.5111 10.6985 18.8929 10.6985 19.3639V26.5764H5.27238V14.6977C5.27238 14.2267 4.89057 13.8448 4.41954 13.8448H2.05293L14.5 2.50311L18.7388 6.36549C18.9885 6.59296 19.3489 6.65159 19.6577 6.51525C19.9666 6.37875 20.166 6.07277 20.166 5.73508V4.18273H24.3575V11.1085C24.3575 11.3485 24.4585 11.5773 24.6359 11.7389L26.947 13.8448H24.58Z" fill="#4A4A55"/>
</svg>
