<?xml version="1.0"?>
<svg xmlns="http://www.w3.org/2000/svg" xmlns:xlink="http://www.w3.org/1999/xlink" xmlns:svgjs="http://svgjs.com/svgjs" version="1.1" width="512" height="512" x="0" y="0" viewBox="0 0 512 512" style="enable-background:new 0 0 512 512" xml:space="preserve" class=""><g><g xmlns="http://www.w3.org/2000/svg"><path d="m197 81h20c8.284 0 15-6.716 15-15s-6.716-15-15-15h-20c-8.284 0-15 6.716-15 15s6.716 15 15 15z" fill="#4976ef" data-original="#000000" style="" class=""/><circle cx="447" cy="66" r="15" fill="#4976ef" data-original="#000000" style="" class=""/><circle cx="387" cy="66" r="15" fill="#4976ef" data-original="#000000" style="" class=""/><path d="m467 0h-300c-24.813 0-45 20.187-45 45v217h-107c-8.284 0-15 6.716-15 15s6.716 15 15 15h6.302l16.279 179.074c2.121 23.332 21.388 40.926 44.815 40.926h384.604c8.284 0 15-6.716 15-15v-47.58c17.459-6.192 30-22.865 30-42.42v-362c0-24.813-20.187-45-45-45zm15 45v57h-190v-72h175c8.271 0 15 6.729 15 15zm-315-15h95v72h-110v-57c0-8.271 6.729-15 15-15zm-45.394 392-2.045-45h30.878l-2.045 45zm25.424 30-1.364 30h-21.333l-1.364-30zm-87.877-75h30.377l2.045 45h-28.331zm121.317 0h30.377l-4.091 45h-28.332zm68.228-85h6.302c8.284 0 15-6.716 15-15s-6.716-15-15-15h-21.648c7.108-39.736 41.898-70 83.648-70 46.869 0 85 38.131 85 85s-38.131 85-85 85c-28.674 0-55.527-14.655-71.163-38.523zm-30.124 0-5 55h-31.741l2.5-55zm-66.771 55h-33.606l-2.5-55h38.606zm-66.136-55 2.5 55h-31.741l-5-55zm-18.209 176.358-1.487-16.358h26.968l1.364 30h-11.907c-7.809 0-14.231-5.865-14.938-13.642zm108.239 13.642 1.364-30h26.968l-1.487 16.358c-.707 7.777-7.129 13.642-14.938 13.642zm276.303 0h-221.947c1.206-3.455 2.019-7.112 2.366-10.926l1.734-19.074h217.847zm15-60h-230.12l5.253-57.781c20.583 17.617 47.092 27.781 74.867 27.781 63.411 0 115-51.589 115-115s-51.589-115-115-115c-58.328 0-106.649 43.651-114.022 100h-50.978v-130h330v275c0 8.271-6.729 15-15 15z" fill="#4976ef" data-original="#000000" style="" class=""/></g></g></svg>
