<svg width="29" height="29" viewBox="0 0 29 29" fill="none" xmlns="http://www.w3.org/2000/svg">
<path d="M20.4193 9.68555C20.8885 9.68555 21.2689 9.30515 21.2689 8.83594V2.54883C21.2689 1.1434 20.1255 0 18.7201 0H5.12634C3.72092 0 2.57751 1.1434 2.57751 2.54883V26.4512C2.57751 27.8566 3.72092 29 5.12634 29H18.7201C20.1255 29 21.2689 27.8566 21.2689 26.4512V20.1641C21.2689 19.6949 20.8886 19.3145 20.4193 19.3145C19.9501 19.3145 19.5697 19.6949 19.5697 20.1641V26.4512C19.5697 26.9196 19.1886 27.3008 18.7201 27.3008H5.12634C4.65787 27.3008 4.27673 26.9196 4.27673 26.4512V2.54883C4.27673 2.08035 4.65787 1.69922 5.12634 1.69922H18.7201C19.1886 1.69922 19.5697 2.08035 19.5697 2.54883V8.83594C19.5697 9.30515 19.9501 9.68555 20.4193 9.68555Z" fill="#4A4A55"/>
<path d="M26.0632 13.8056L22.5842 11.353C22.2007 11.0826 21.6707 11.1744 21.4003 11.5579C21.13 11.9414 21.2217 12.4714 21.6052 12.7418L22.894 13.6504H9.79926C9.33004 13.6504 8.94965 14.0308 8.94965 14.5C8.94965 14.9692 9.33004 15.3496 9.79926 15.3496H22.894L21.6052 16.2582C21.2217 16.5286 21.1299 17.0587 21.4003 17.4422C21.6708 17.8259 22.2009 17.9174 22.5842 17.6471L26.0632 15.1945C26.5466 14.8537 26.5378 14.1401 26.0632 13.8056Z" fill="#4A4A55"/>
</svg>
